<svg xmlns="http://www.w3.org/2000/svg" viewBox="0 0 1000 919.11" height="919.11" width="1000" data-name="レイヤー 2" id="_レイヤー_2"><defs><style> .cls-1 { fill: #c40f32; } .cls-2 { fill: #3e3a39; } </style></defs><g data-name="ブランドカラー" id="_ブランドカラー"><g><path d="m30.09,728.02v14.07H0v-146.54h30.09v54.32c7.42-10.16,17.58-17.58,33.22-17.58,25.4,0,48.85,19.93,48.85,55.49v.78c0,35.56-23.45,55.49-48.85,55.49-16.02-.39-25.79-7.42-33.22-16.02m51.97-39.86h0c0-17.98-12.11-30.09-26.18-30.09s-26.18,12.11-26.18,29.7v.78c0,17.98,12.11,29.7,26.18,29.7,14.46-.39,26.18-12.11,26.18-30.09" class="cls-2"/><path d="m125.83,711.22h0c0-24.23,17.98-34.39,43.38-34.39,10.94,0,18.76,1.95,26.57,4.3v-1.95c0-12.9-7.82-19.93-23.06-19.93-11.33,0-19.93,2.34-29.7,5.86l-7.82-23.06c12.11-5.47,23.45-8.6,41.81-8.6,16.8,0,28.53,4.3,36.34,12.11,7.82,7.82,11.33,19.93,11.33,34.39v62.13h-29.31v-11.33c-7.42,8.6-17.58,14.07-32.83,14.07-20.32-1.17-36.73-12.5-36.73-33.61m69.95-7.42v-5.47c-5.47-2.34-12.11-4.3-19.54-4.3-13.29,0-21.1,5.47-21.1,15.24v.78c0,8.6,6.64,13.29,16.8,13.29,14.46-.78,23.84-8.6,23.84-19.54" class="cls-2"/><path d="m240.72,727.63l13.29-19.93c11.33,8.6,24.23,12.9,34,12.9,8.99,0,12.9-3.13,12.9-7.82v-.78c0-6.64-10.16-8.99-22.27-12.9-15.24-4.3-32.04-11.33-32.04-32.04v-.78c0-21.88,17.59-34,39.47-34,14.07,0,28.53,4.69,39.86,12.9l-11.33,21.1c-10.94-5.86-21.1-10.16-28.92-10.16s-11.33,3.13-11.33,7.42v.78c0,5.86,10.16,8.99,21.88,12.9,15.24,4.69,32.83,12.11,32.83,32.04v.78c0,24.23-17.98,34.39-41.03,34.39-16.41-.78-33.22-5.47-47.28-16.8" class="cls-2"/><path d="m341.54,688.94h0c0-30.87,21.88-56.27,53.15-56.27,35.56,0,52.75,27.75,52.75,58.62,0,2.34,0,5.47-.78,7.82h-74.64c3.13,14.07,12.9,21.1,26.18,21.1,10.16,0,17.58-3.13,26.18-10.94l17.58,15.63c-10.16,12.9-24.62,19.93-44.16,19.93-32.04-.39-56.27-23.45-56.27-55.88m76.59-9.38c-1.95-14.07-9.77-23.06-23.06-23.06s-21.1,8.99-23.45,23.06h46.5Z" class="cls-2"/><path d="m461.9,688.94h0c0-30.87,23.45-56.27,56.27-56.27,20.71,0,32.83,6.64,42.99,17.98l-18.76,19.93c-6.64-7.42-14.07-12.11-24.62-12.11-15.24,0-26.18,13.29-26.18,28.92v.78c0,16.41,10.94,29.7,27.35,29.7,10.16,0,17.58-4.3,24.62-11.33l17.98,17.98c-10.16,11.33-22.27,19.93-44.16,19.93-31.65,0-55.49-24.62-55.49-55.49" class="cls-2"/><path d="m574.05,711.22h0c0-24.23,17.98-34.39,43.38-34.39,10.94,0,18.76,1.95,26.18,4.3v-1.95c0-12.9-7.82-19.93-23.06-19.93-11.33,0-19.93,2.34-29.7,5.86l-7.82-23.06c12.11-5.47,23.45-8.6,41.81-8.6,16.8,0,28.92,4.3,36.34,12.11,7.82,7.82,11.33,19.93,11.33,34.39v62.13h-29.7v-11.33c-7.42,8.6-17.58,14.07-32.83,14.07-19.54-1.17-35.95-12.5-35.95-33.61m69.56-7.42v-5.47c-5.47-2.34-12.11-4.3-19.54-4.3-13.29,0-21.1,5.47-21.1,15.24v.78c0,8.6,6.64,13.29,16.8,13.29,14.07-.78,23.84-8.6,23.84-19.54" class="cls-2"/><path d="m697.93,634.23h30.09v15.24c7.42-8.99,16.41-17.58,31.26-17.58,14.07,0,24.62,5.86,30.09,16.8,9.77-10.94,20.71-16.8,35.17-16.8,23.06,0,36.34,14.07,36.34,39.47v70.34h-30.09v-59.79c0-14.46-6.64-21.88-17.98-21.88s-18.76,7.42-18.76,21.88v59.79h-30.09v-59.79c0-14.46-6.64-21.88-17.98-21.88s-18.76,7.42-18.76,21.88v59.79h-30.09v-107.07h.78v-.39Z" class="cls-2"/><path d="m887.85,634.23h30.09v15.63c7.42-10.16,17.58-17.58,33.22-17.58,24.62,0,48.85,19.93,48.85,55.49v.78c0,35.56-23.45,55.49-48.85,55.49-16.41,0-26.57-7.42-33.22-16.41v46.11h-30.09v-139.51Zm82.84,53.93h0c0-17.98-12.11-30.09-26.18-30.09s-26.18,12.11-26.18,29.7v.78c0,17.98,12.11,29.7,26.18,29.7,14.07-.39,26.18-12.11,26.18-30.09" class="cls-2"/><polygon points="173.51 808.52 181.32 808.52 255.96 903.09 255.96 808.52 263.77 808.52 263.77 916.76 257.52 916.76 181.32 820.63 181.32 916.76 173.51 916.76 173.51 808.52" class="cls-2"/><path d="m334.9,808.13h7.82l50.8,109.42h-8.99l-14.07-30.09h-63.7l-14.07,30.09h-8.6l50.8-109.42Zm32.04,71.12l-28.53-62.92-28.53,62.92h57.05Z" class="cls-2"/><path d="m402.11,862.84h0c0-29.7,21.1-56.27,53.93-56.27,17.58,0,28.92,5.47,39.86,14.46l-5.47,5.86c-8.6-7.42-18.76-13.29-35.17-13.29-26.57,0-44.94,22.27-44.94,48.46v.78c0,27.75,17.58,48.85,46.5,48.85,14.07,0,26.57-5.47,34.39-12.11v-31.26h-36.34v-7.42h44.16v41.81c-9.77,8.6-24.62,16.41-42.2,16.41-34-.39-54.71-25.4-54.71-56.27" class="cls-2"/><path d="m522.08,862.84h0c0-29.7,21.88-56.27,54.32-56.27s54.32,26.18,54.32,55.49v.78c0,29.7-21.88,56.27-54.32,56.27-33.22-.39-54.32-26.57-54.32-56.27m100.43,0h0c0-27.35-19.54-48.85-46.5-48.85s-46.11,21.88-46.11,48.46v.78c0,26.57,19.54,48.85,46.5,48.85,26.57-.78,46.11-22.67,46.11-49.24" class="cls-2"/><polygon points="682.69 873.78 636.19 808.52 646.74 808.52 686.99 866.74 727.63 808.52 737.4 808.52 690.89 873.78 690.89 916.76 682.69 916.76 682.69 873.78" class="cls-2"/><path d="m772.96,808.13h7.82l50.8,109.42h-8.99l-14.07-30.09h-64.09l-14.07,30.09h-8.6l51.19-109.42Zm32.83,71.12l-28.53-62.92-28.53,62.92h57.05Z" class="cls-2"/><polygon points="497.85 0 600.63 59.01 497.85 118.41 497.85 0" class="cls-1"/><polygon points="668.23 520.52 543.57 520.52 543.57 402.89 452.52 402.89 452.52 520.52 327.08 520.52 497.85 118.41 668.23 520.52" class="cls-2"/></g></g></svg>