<svg aria-hidden="true" width="24" height="24" viewBox="0 0 24 24" fill="none" xmlns="http://www.w3.org/2000/svg"><path d="M12 1.5C14.2469 1.5 16.2295 2.29209 17.9268 3.85742C19.6527 5.44931 20.5 7.58256 20.5 10.2002C20.4999 12.0004 19.7852 13.9102 18.4268 15.918C17.0673 17.9272 15.0268 20.0811 12.3242 22.3809L12 22.6562L11.6758 22.3809C8.9732 20.0811 6.93269 17.9272 5.57324 15.918C4.21482 13.9102 3.50005 12.0004 3.5 10.2002C3.5 7.58256 4.34728 5.44931 6.07324 3.85742C7.77049 2.29209 9.75312 1.5 12 1.5ZM12 8.5C11.5837 8.5 11.2401 8.64276 10.9414 8.94141C10.6428 9.24005 10.5 9.58366 10.5 10C10.5 10.4163 10.6428 10.7599 10.9414 11.0586C11.2401 11.3572 11.5837 11.5 12 11.5C12.4163 11.5 12.7599 11.3572 13.0586 11.0586C13.3572 10.7599 13.5 10.4163 13.5 10C13.5 9.58366 13.3572 9.24005 13.0586 8.94141C12.7599 8.64276 12.4163 8.5 12 8.5Z" fill="currentColor" stroke="white"/><circle cx="12" cy="10" r="3" fill="white"/></svg>
