<svg width="24" height="24" viewBox="0 0 24 24" fill="none" xmlns="http://www.w3.org/2000/svg">
<g clip-path="url(#clip0_6183_2503)">
<path d="M10.333 12.8335C10.6909 13.3119 11.1475 13.7078 11.6718 13.9943C12.1961 14.2807 12.7759 14.4511 13.3719 14.4937C13.9678 14.5364 14.566 14.4504 15.1258 14.2416C15.6856 14.0328 16.1939 13.706 16.6163 13.2835L19.1163 10.7835C19.8753 9.99762 20.2953 8.94512 20.2858 7.85263C20.2763 6.76014 19.8381 5.71509 19.0656 4.94256C18.2931 4.17002 17.248 3.73182 16.1555 3.72233C15.063 3.71283 14.0105 4.13281 13.2247 4.8918L11.7913 6.3168" stroke="#333333" stroke-width="1.5" stroke-linecap="square" stroke-linejoin="round"/>
<path d="M13.6668 11.1665C13.309 10.6881 12.8524 10.2922 12.328 10.0057C11.8037 9.71928 11.2239 9.54893 10.628 9.50625C10.032 9.46357 9.43384 9.54956 8.87405 9.75838C8.31425 9.9672 7.8059 10.294 7.3835 10.7165L4.8835 13.2165C4.12451 14.0024 3.70453 15.0549 3.71402 16.1474C3.72352 17.2399 4.16172 18.2849 4.93426 19.0574C5.70679 19.83 6.75184 20.2682 7.84433 20.2777C8.93681 20.2872 9.98932 19.8672 10.7752 19.1082L12.2002 17.6832" stroke="#333333" stroke-width="1.5" stroke-linecap="square" stroke-linejoin="round"/>
</g>
<defs>
<clipPath id="clip0_6183_2503">
<rect width="20" height="20" fill="white" transform="translate(2 2)"/>
</clipPath>
</defs>
</svg>
