<svg xmlns:xlink="http://www.w3.org/1999/xlink" xmlns="http://www.w3.org/2000/svg" viewBox="0 0 2499.9 2499.9"><defs><clipPath id="a"><path fill="none" d="M1249.9 225.2c333.8 0 373.3 1.2 505.1 7.3 121.9 5.6 188.1 25.9 232.1 43 58.4 22.7 100 49.7 143.7 93.5 43.7 43.7 70.8 85.4 93.5 143.7 17.1 44 37.5 110.2 43 232.1 6 131.8 7.3 171.3 7.3 505.1s-1.2 373.3-7.3 505.1c-5.6 121.9-25.9 188.1-43 232.1-22.7 58.4-49.7 100-93.5 143.7-43.7 43.7-85.4 70.8-143.7 93.5-44 17.1-110.2 37.5-232.1 43-131.8 6-171.3 7.3-505.1 7.3s-373.3-1.2-505.1-7.3c-121.9-5.6-188.1-25.9-232.1-43-58.4-22.7-100-49.8-143.7-93.5-43.7-43.7-70.8-85.4-93.5-143.7-17.1-44-37.5-110.2-43-232.1-6-131.8-7.3-171.3-7.3-505.1s1.2-373.3 7.3-505.1c5.6-121.9 25.9-188.1 43-232.1 22.7-58.4 49.7-100 93.5-143.7 43.7-43.7 85.4-70.8 143.7-93.5 44-17.1 110.2-37.5 232.1-43 131.8-6 171.3-7.3 505.1-7.3zm0-225.2c-339.5 0-382 1.4-515.3 7.5-133.1 6.1-223.9 27.2-303.4 58.1-82.2 32-151.9 74.7-221.4 144.2C140.3 279.3 97.5 349 65.6 431.2c-30.9 79.5-52 170.4-58.1 303.4C1.5 867.9 0 910.5 0 1249.9s1.5 382 7.5 515.3c6.1 133.1 27.2 223.9 58.1 303.4 32 82.2 74.7 151.9 144.2 221.4 69.5 69.5 139.2 112.2 221.4 144.2 79.5 30.9 170.4 52.1 303.4 58.1 133.3 6.1 175.9 7.5 515.3 7.5s382-1.4 515.3-7.5c133.1-6.1 223.9-27.2 303.4-58.1 82.2-32 151.9-74.7 221.4-144.2 69.5-69.5 112.2-139.2 144.2-221.4 30.9-79.5 52.1-170.4 58.1-303.4 6.1-133.3 7.5-175.9 7.5-515.3s-1.4-382-7.5-515.3c-6.1-133.1-27.2-223.9-58.1-303.4-32-82.2-74.7-151.9-144.2-221.4-69.5-69.5-139.2-112.2-221.4-144.2-79.5-30.9-170.4-52.1-303.4-58.1C1632 1.4 1589.4 0 1249.9 0zm0 608.1c-354.5 0-641.8 287.4-641.8 641.8s287.4 641.8 641.8 641.8 641.8-287.4 641.8-641.8-287.4-641.8-641.8-641.8zm0 1058.5c-230.1 0-416.7-186.5-416.7-416.7s186.6-416.7 416.7-416.7 416.7 186.5 416.7 416.7-186.6 416.7-416.7 416.7zm667.2-1233.9c-82.9 0-150 67.1-150 150s67.1 150 150 150 150-67.1 150-150-67.1-150-150-150z"/></clipPath></defs><g clip-path="url(#a)"><image style="isolation:isolate" xlink:href="icon-color-instagram-1.png" transform="matrix(1.6 0 0 1.6 -703.3 -703.3)" height="2497" width="2497"/></g></svg>