<svg xmlns="http://www.w3.org/2000/svg" viewBox="0 0 500 500" height="500" width="500"><g transform="translate(-100 -100)" id="Logo"><path fill="#0866ff" d="M600,350c0-138.071-111.929-250-250-250S100,211.929,100,350c0,117.245,80.715,215.622,189.606,242.638V426.4H238.054V350h51.552V317.081c0-85.092,38.508-124.532,122.048-124.532,15.838,0,43.167,3.105,54.347,6.211v69.254c-5.9-.621-16.149-.932-28.882-.932-40.993,0-56.832,15.528-56.832,55.9V350h81.659l-14.028,76.4H380.287V598.169C504.073,583.218,600,477.818,600,350Z" id="Initiator"/><path fill="#fff" d="M447.918,426.4,461.946,350H380.287V322.982c0-40.372,15.839-55.9,56.832-55.9,12.733,0,22.981.311,28.882.932V198.76c-11.18-3.106-38.509-6.211-54.347-6.211-83.54,0-122.048,39.44-122.048,124.532V350H238.053v76.4h51.553V592.638a251.4,251.4,0,0,0,90.681,5.531V426.4Z" id="F"/></g></svg>