<svg xmlns="http://www.w3.org/2000/svg" width="1274" height="1274" viewBox="0 0 1274 1274">
  <path id="x-circle" d="M-4189,785a647.206,647.206,0,0,1-65.129-3.289,638.59,638.59,0,0,1-63.249-9.653c-20.523-4.2-41.062-9.481-61.047-15.7-19.762-6.147-39.453-13.353-58.525-21.42-18.9-7.993-37.632-17.018-55.683-26.824-17.923-9.737-35.594-20.472-52.521-31.907-16.844-11.379-33.343-23.717-49.039-36.67-15.658-12.923-30.878-26.755-45.236-41.113s-28.192-29.58-41.113-45.236c-12.951-15.692-25.289-32.191-36.67-49.038-11.436-16.927-22.171-34.6-31.907-52.521-9.8-18.048-18.829-36.783-26.824-55.683-8.067-19.073-15.274-38.763-21.42-58.525-6.217-19.988-11.5-40.527-15.7-61.047a638.569,638.569,0,0,1-9.653-63.248A647.269,647.269,0,0,1-4826,148a647.268,647.268,0,0,1,3.289-65.13,638.543,638.543,0,0,1,9.653-63.248c4.2-20.52,9.48-41.059,15.7-61.047,6.146-19.762,13.354-39.452,21.42-58.525,7.995-18.9,17.02-37.635,26.824-55.683,9.737-17.923,20.472-35.594,31.907-52.521,11.382-16.847,23.72-33.346,36.67-49.038,12.92-15.656,26.753-30.876,41.113-45.236s29.578-28.191,45.236-41.113c15.7-12.953,32.195-25.291,49.039-36.67,16.926-11.435,34.6-22.17,52.521-31.907,18.052-9.806,36.787-18.831,55.683-26.824,19.074-8.068,38.764-15.274,58.525-21.42,19.985-6.216,40.524-11.5,61.047-15.7a638.6,638.6,0,0,1,63.249-9.653A647.206,647.206,0,0,1-4189-489a647.206,647.206,0,0,1,65.129,3.289,638.627,638.627,0,0,1,63.248,9.653c20.522,4.2,41.061,9.48,61.047,15.7,19.761,6.146,39.452,13.353,58.525,21.42,18.895,7.992,37.629,17.016,55.683,26.824,17.925,9.737,35.6,20.473,52.521,31.907,16.845,11.38,33.344,23.718,49.038,36.67,15.657,12.922,30.877,26.754,45.236,41.113s28.19,29.577,41.113,45.236c12.953,15.7,25.291,32.194,36.67,49.038,11.436,16.927,22.171,34.6,31.907,52.521,9.807,18.052,18.832,36.787,26.824,55.683,8.066,19.069,15.272,38.76,21.42,58.525,6.216,19.986,11.5,40.526,15.7,61.047a638.567,638.567,0,0,1,9.653,63.248A647.284,647.284,0,0,1-3552,148a647.287,647.287,0,0,1-3.289,65.13,638.58,638.58,0,0,1-9.653,63.248c-4.2,20.521-9.48,41.06-15.7,61.047-6.148,19.765-13.355,39.456-21.42,58.525-7.992,18.9-17.017,37.63-26.824,55.683-9.737,17.923-20.472,35.594-31.907,52.521-11.38,16.844-23.717,33.343-36.67,49.038-12.923,15.659-26.756,30.879-41.113,45.236s-29.578,28.192-45.236,41.113c-15.695,12.952-32.194,25.29-49.038,36.67-16.927,11.435-34.6,22.17-52.521,31.907-18.052,9.806-36.787,18.831-55.683,26.824-19.072,8.067-38.762,15.273-58.525,21.42-19.985,6.216-40.524,11.5-61.047,15.7a638.618,638.618,0,0,1-63.248,9.653A647.206,647.206,0,0,1-4189,785Zm-50.329-555.394,194.845,283.561h212.8L-4121.029,92.079h.016l266.038-309.247h-63.042l-231,268.516-184.5-268.516h-212.8l279,406.042-279,324.293h63.046l243.943-283.561Zm321.339,238.26h-96.833l-192.541-275.4v-.016l-28.269-40.432-224.922-321.727h96.835L-4182.2,89.936l28.267,40.432,235.949,337.5v0h0Z" transform="translate(4826 489)" fill="#333"/>
</svg>
