<svg xmlns="http://www.w3.org/2000/svg" width="50" height="50" viewBox="0 0 50 50">
  <g id="グループ_324" data-name="グループ 324" transform="translate(-740.969 -1690)">
    <circle id="楕円形_29" data-name="楕円形 29" cx="24.969" cy="24.969" r="24.969" transform="translate(741 1690)" fill="#fff"/>
    <g id="グループ_72" data-name="グループ 72" transform="translate(740.969 1690)">
      <path id="パス_78" data-name="パス 78" d="M50,25A25,25,0,1,0,21.094,49.7V32.226H14.746V25h6.348V19.492c0-6.266,3.732-9.726,9.443-9.726a38.444,38.444,0,0,1,5.6.488v6.152H32.98c-3.106,0-4.074,1.927-4.074,3.9V25H35.84l-1.108,7.227H28.906V49.7A25.006,25.006,0,0,0,50,25Z" fill="#1877f2"/>
      <path id="パス_79" data-name="パス 79" d="M322.01,222.489l1.11-7.236h-6.942v-4.7c0-1.98.97-3.909,4.079-3.909h3.156v-6.16a38.492,38.492,0,0,0-5.6-.489c-5.718,0-9.455,3.465-9.455,9.739v5.515H302v7.236h6.356V239.98a25.3,25.3,0,0,0,7.822,0V222.489Z" transform="translate(-287.268 -190.285)" fill="#fff"/>
    </g>
  </g>
</svg>
