<svg xmlns="http://www.w3.org/2000/svg" width="50" height="50" viewBox="0 0 50 50">
  <g id="グループ_325" data-name="グループ 325" transform="translate(-660 -1690)">
    <rect id="長方形_313" data-name="長方形 313" width="50" height="50" transform="translate(660 1690)" fill="none"/>
    <path id="パス_80" data-name="パス 80" d="M88.5,133.322c16.195,0,25.053-13.417,25.053-25.053,0-.381,0-.76-.026-1.138a17.915,17.915,0,0,0,4.393-4.558,17.575,17.575,0,0,1-5.057,1.385,8.836,8.836,0,0,0,3.871-4.87,17.646,17.646,0,0,1-5.591,2.137,8.813,8.813,0,0,0-15.005,8.031,25,25,0,0,1-18.147-9.2,8.812,8.812,0,0,0,2.726,11.754,8.74,8.74,0,0,1-4-1.1v.112a8.808,8.808,0,0,0,7.064,8.631,8.791,8.791,0,0,1-3.976.151,8.815,8.815,0,0,0,8.226,6.115A17.668,17.668,0,0,1,77.1,129.494a17.924,17.924,0,0,1-2.1-.127,24.927,24.927,0,0,0,13.5,3.948" transform="translate(588.289 1599.156)" fill="#1da1f2"/>
  </g>
</svg>
