<svg xmlns="http://www.w3.org/2000/svg" width="50" height="50" viewBox="0 0 50 50">
  <g id="グループ_71" data-name="グループ 71" transform="translate(-360.945 -237.638)">
    <circle id="楕円形_14" data-name="楕円形 14" cx="25" cy="25" r="25" transform="translate(360.945 237.638)" fill="#00b900"/>
    <g id="TYPE_A" data-name="TYPE A" transform="translate(369.023 247.345)">
      <g id="グループ_70" data-name="グループ 70" transform="translate(0)">
        <path id="パス_73" data-name="パス 73" d="M415.149,275.49c0-7.632-7.652-13.842-17.057-13.842s-17.057,6.21-17.057,13.842c0,6.843,6.068,12.573,14.265,13.656.556.12,1.312.366,1.5.841a3.5,3.5,0,0,1,.055,1.542s-.2,1.2-.243,1.46c-.074.431-.343,1.686,1.477.92s9.823-5.784,13.4-9.9h0a12.315,12.315,0,0,0,3.656-8.517" transform="translate(-381.035 -261.648)" fill="#fff"/>
        <g id="グループ_69" data-name="グループ 69" transform="translate(5.595 10.154)">
          <path id="パス_74" data-name="パス 74" d="M410.788,285.4h-1.2a.332.332,0,0,0-.332.332v7.432a.332.332,0,0,0,.332.332h1.2a.332.332,0,0,0,.332-.332v-7.432a.332.332,0,0,0-.332-.332" transform="translate(-402.792 -285.405)" fill="#00b900"/>
          <path id="パス_75" data-name="パス 75" d="M423.075,285.4h-1.2a.332.332,0,0,0-.332.332v4.416l-3.406-4.6a.33.33,0,0,0-.026-.034l0,0-.02-.021-.006-.006-.018-.015-.009-.007-.017-.012-.01-.006-.018-.01-.011-.005-.019-.008-.011,0-.02-.006-.012,0-.019,0-.014,0-.018,0h-1.225a.332.332,0,0,0-.332.332v7.432a.332.332,0,0,0,.332.332h1.2a.332.332,0,0,0,.333-.332v-4.414l3.41,4.606a.331.331,0,0,0,.084.082l0,0,.021.012.009.005.016.008.016.007.01,0,.023.007h0a.327.327,0,0,0,.085.012h1.2a.332.332,0,0,0,.332-.332v-7.432a.332.332,0,0,0-.332-.332" transform="translate(-406.843 -285.405)" fill="#00b900"/>
          <path id="パス_76" data-name="パス 76" d="M399.239,291.639h-3.251v-5.9a.332.332,0,0,0-.332-.332h-1.2a.333.333,0,0,0-.333.332v7.432h0a.331.331,0,0,0,.093.229l0,.005,0,0a.33.33,0,0,0,.23.093h4.78a.332.332,0,0,0,.332-.332v-1.2a.332.332,0,0,0-.332-.333" transform="translate(-394.127 -285.405)" fill="#00b900"/>
          <path id="パス_77" data-name="パス 77" d="M440.715,287.266a.332.332,0,0,0,.332-.332v-1.2a.332.332,0,0,0-.332-.333h-4.78a.33.33,0,0,0-.23.094l0,0-.006.006a.333.333,0,0,0-.092.229h0v7.431h0a.331.331,0,0,0,.093.229l0,.005,0,0a.331.331,0,0,0,.229.093h4.78a.332.332,0,0,0,.332-.332v-1.2a.332.332,0,0,0-.332-.332h-3.251v-1.257h3.251a.332.332,0,0,0,.332-.332v-1.2a.332.332,0,0,0-.332-.333h-3.251v-1.256Z" transform="translate(-417.876 -285.405)" fill="#00b900"/>
        </g>
      </g>
    </g>
  </g>
</svg>
