<svg xmlns="http://www.w3.org/2000/svg" width="134.357" height="23.084" viewBox="0 0 134.357 23.084">
  <path d="M7.975-21.866v11.89q0,.957.072,1.958a5.365,5.365,0,0,0,.435,1.812A3.016,3.016,0,0,0,9.628-4.887a4.042,4.042,0,0,0,2.2.508,3.965,3.965,0,0,0,2.189-.508,3.144,3.144,0,0,0,1.146-1.319,5.153,5.153,0,0,0,.45-1.812q.072-1,.073-1.958v-11.89h5.655V-9.193q0,5.1-2.334,7.453T11.832.609Q6.989.609,4.64-1.74T2.291-9.193V-21.866ZM34.22-17.052V0H28.536V-17.052H23.867v-4.814H38.889v4.814Zm19.227.783a7.019,7.019,0,0,0-1.856-1.117,4.929,4.929,0,0,0-1.8-.362,2.917,2.917,0,0,0-1.8.522,1.626,1.626,0,0,0-.7,1.363,1.356,1.356,0,0,0,.348.957,3.033,3.033,0,0,0,.913.653,7.819,7.819,0,0,0,1.276.479q.711.2,1.406.435a8.77,8.77,0,0,1,4.075,2.479,6.117,6.117,0,0,1,1.291,4.046,7.876,7.876,0,0,1-.565,3.045A6.354,6.354,0,0,1,54.39-1.436,7.627,7.627,0,0,1,51.722.072,11.111,11.111,0,0,1,48.14.609a13.172,13.172,0,0,1-7.685-2.465l2.436-4.582a9.881,9.881,0,0,0,2.523,1.682,6.064,6.064,0,0,0,2.465.551,2.942,2.942,0,0,0,2.073-.638,1.941,1.941,0,0,0,.682-1.45,1.958,1.958,0,0,0-.174-.856,1.853,1.853,0,0,0-.58-.667,4.648,4.648,0,0,0-1.058-.566q-.653-.261-1.581-.58-1.1-.348-2.16-.769A6.8,6.8,0,0,1,43.2-10.846,5.188,5.188,0,0,1,41.862-12.6a6.2,6.2,0,0,1-.508-2.682,7.749,7.749,0,0,1,.537-2.943A6.541,6.541,0,0,1,43.4-20.489a6.722,6.722,0,0,1,2.378-1.465,8.989,8.989,0,0,1,3.147-.522,13.773,13.773,0,0,1,3.393.449,14.965,14.965,0,0,1,3.393,1.32Zm12.412-5.6v11.89q0,.957.072,1.958a5.365,5.365,0,0,0,.435,1.812,3.016,3.016,0,0,0,1.146,1.319,4.042,4.042,0,0,0,2.2.508,3.965,3.965,0,0,0,2.19-.508,3.144,3.144,0,0,0,1.145-1.319,5.153,5.153,0,0,0,.45-1.812q.072-1,.073-1.958v-11.89h5.655V-9.193q0,5.1-2.334,7.453T69.716.609q-4.843,0-7.192-2.349T60.175-9.193V-21.866Zm21.6,0,3.77,14.123,4.64-14.123H100.4l4.64,14.123,3.77-14.123h5.945L108.228,0h-5.8L98.136-12.673,93.844,0h-5.8L81.519-21.866ZM127.774-8.12,125.222-15.4,122.67-8.12ZM129.282-3.8h-8.12L119.857,0H113.8l8.323-21.866h6.206L136.648,0h-6.061Z" transform="translate(-2.291 22.475)" fill="#313131"/>
</svg>
