<svg width="96" height="96" viewBox="0 0 96 96" fill="none" xmlns="http://www.w3.org/2000/svg">
<path d="M0 48C0 21.4903 21.4903 0 48 0C74.5097 0 96 21.4903 96 48C96 74.5097 74.5097 96 48 96C21.4903 96 0 74.5097 0 48Z" fill="#F5F5F5"/>
<path d="M48 48.0008C51.6373 48.0008 55.1255 46.5559 57.6975 43.984C60.2694 41.4121 61.7143 37.9238 61.7143 34.2866C61.7143 30.6493 60.2694 27.161 57.6975 24.5891C55.1255 22.0172 51.6373 20.5723 48 20.5723C44.3627 20.5723 40.8745 22.0172 38.3025 24.5891C35.7306 27.161 34.2857 30.6493 34.2857 34.2866C34.2857 37.9238 35.7306 41.4121 38.3025 43.984C40.8745 46.5559 44.3627 48.0008 48 48.0008ZM43.1036 53.1437C32.55 53.1437 24 61.6937 24 72.2473C24 74.0044 25.425 75.4294 27.1821 75.4294H68.8179C70.575 75.4294 72 74.0044 72 72.2473C72 61.6937 63.45 53.1437 52.8964 53.1437H43.1036Z" fill="white"/>
</svg>
