<?xml version="1.0" encoding="UTF-8"?>
<svg id="_レイヤー_1" data-name="レイヤー_1" xmlns="http://www.w3.org/2000/svg" version="1.1" viewBox="0 0 64 64">
  <defs>
    <style>
      .st0 {
        fill: #fff;
      }

      .st1 {
        fill: #5e5e5e;
      }
    </style>
  </defs>
  <path class="st1" d="M0,64V0h64L0,64Z"/>
  <path class="st0" d="M11.2,28l.9-.9,8.8,1.9h0s-5.3-5.3-5.3-5.3l.8-.8,6.6,6.6-1,1-8.7-1.8h0s5.3,5.3,5.3,5.3l-.8.8-6.6-6.6ZM24.8,21.9c-.2-.2-.4-.3-.7-.4-.2,0-.5-.1-.7-.1-.2,0-.5,0-.7.1-.2,0-.4.2-.6.4s-.3.4-.4.7c0,.2-.1.5-.1.7,0,.2,0,.5.2.7,0,.2.2.4.4.6l2.7-2.7ZM26.9,22.5c.4.6.6,1.3.5,1.9s-.4,1.2-.9,1.7-.8.6-1.2.8c-.4.2-.8.2-1.2.2-.4,0-.8-.2-1.2-.4-.4-.2-.8-.5-1.2-.8-.4-.4-.6-.7-.8-1.2s-.3-.8-.3-1.2c0-.4,0-.8.2-1.2.2-.4.4-.8.7-1.1.4-.4.9-.7,1.3-.8.5-.1.9-.1,1.3,0,.4,0,.9.3,1.2.5.4.3.7.5,1,.8l-3.6,3.6c.2.2.4.4.7.5.2.1.5.2.8.2.3,0,.5,0,.8-.1.3-.1.5-.3.8-.5s.5-.7.6-1c0-.4,0-.7-.3-1.1l.8-.8ZM34,18.4l-.8.8-4.7-2.8h0s2.8,4.8,2.8,4.8l-.8.8-6.3-3.2.9-.9,5,2.8h0s-2.9-4.9-2.9-4.9l.9-.9,4.9,2.9h0s-2.8-5-2.8-5l.8-.8,3.2,6.3Z"/>
</svg>