<svg height="25" viewBox="0 0 25 25" width="25" xmlns="http://www.w3.org/2000/svg"><path d="m0 0h25v25h-25z" fill="none"/><path d="m81.844 116.133a12.618 12.618 0 0 0 12.7-12.7c0-.193 0-.386-.013-.577a9.085 9.085 0 0 0 2.228-2.311 8.912 8.912 0 0 1 -2.564.7 4.48 4.48 0 0 0 1.963-2.47 8.948 8.948 0 0 1 -2.835 1.084 4.469 4.469 0 0 0 -7.609 4.072 12.676 12.676 0 0 1 -9.2-4.665 4.468 4.468 0 0 0 1.382 5.96 4.432 4.432 0 0 1 -2.026-.559v.057a4.466 4.466 0 0 0 3.582 4.377 4.458 4.458 0 0 1 -2.016.077 4.47 4.47 0 0 0 4.171 3.1 8.959 8.959 0 0 1 -5.545 1.915 9.088 9.088 0 0 1 -1.062-.065 12.64 12.64 0 0 0 6.844 2" fill="#313131" transform="translate(-73.769 -94.365)"/></svg>