<svg width="24" height="24" viewBox="0 0 24 24" fill="none" xmlns="http://www.w3.org/2000/svg">
<g clip-path="url(#clip0_6182_26832)">
<g clip-path="url(#clip1_6182_26832)">
<path d="M18.5895 0H5.4105C2.42236 0 0 2.42236 0 5.4105V18.5895C0 21.5776 2.42236 24 5.4105 24H18.5895C21.5776 24 24 21.5776 24 18.5895V5.4105C24 2.42236 21.5776 0 18.5895 0Z" fill="#06C755"/>
<path d="M19.9996 10.869C19.9996 7.28849 16.4101 4.37549 11.9978 4.37549C7.58559 4.37549 3.99609 7.28849 3.99609 10.869C3.99609 14.079 6.84309 16.767 10.6883 17.2755C10.9486 17.3317 11.3033 17.4472 11.3933 17.67C11.4743 17.8725 11.4458 18.189 11.4196 18.3937C11.4196 18.3937 11.3258 18.9585 11.3056 19.0785C11.2703 19.281 11.1451 19.8697 11.9986 19.5097C12.8528 19.1497 16.6066 16.7962 18.2851 14.8642C19.4446 13.5922 20.0003 12.3022 20.0003 10.869H19.9996Z" fill="white"/>
<path d="M17.3373 12.9372H15.0895C15.0048 12.9372 14.9365 12.8689 14.9365 12.7842V12.7819V9.29591V9.29216C14.9365 9.20741 15.0048 9.13916 15.0895 9.13916H17.3373C17.4213 9.13916 17.4903 9.20816 17.4903 9.29216V9.85991C17.4903 9.94466 17.422 10.0129 17.3373 10.0129H15.8095V10.6024H17.3373C17.4213 10.6024 17.4903 10.6714 17.4903 10.7554V11.3232C17.4903 11.4079 17.422 11.4762 17.3373 11.4762H15.8095V12.0657H17.3373C17.4213 12.0657 17.4903 12.1347 17.4903 12.2187V12.7864C17.4903 12.8712 17.422 12.9394 17.3373 12.9394V12.9372Z" fill="#06C755"/>
<path d="M9.02162 12.9369C9.10562 12.9369 9.17462 12.8687 9.17462 12.7839V12.2162C9.17462 12.1322 9.10562 12.0632 9.02162 12.0632H7.49387V9.29118C7.49387 9.20718 7.42487 9.13818 7.34087 9.13818H6.77312C6.68837 9.13818 6.62012 9.20643 6.62012 9.29118V12.7809V12.7839C6.62012 12.8687 6.68837 12.9369 6.77312 12.9369H9.02087H9.02162Z" fill="#06C755"/>
<path d="M10.3743 9.13916H9.8073C9.7228 9.13916 9.6543 9.20766 9.6543 9.29216V12.7842C9.6543 12.8687 9.7228 12.9372 9.8073 12.9372H10.3743C10.4588 12.9372 10.5273 12.8687 10.5273 12.7842V9.29216C10.5273 9.20766 10.4588 9.13916 10.3743 9.13916Z" fill="#06C755"/>
<path d="M14.2375 9.13916H13.6697C13.585 9.13916 13.5167 9.20741 13.5167 9.29216V11.3659L11.9192 9.20816C11.9155 9.20291 11.911 9.19766 11.9072 9.19241C11.9072 9.19241 11.9072 9.19241 11.9065 9.19166C11.9035 9.18866 11.9005 9.18491 11.8975 9.18191C11.8967 9.18116 11.8952 9.18041 11.8945 9.17966C11.8915 9.17741 11.8892 9.17516 11.8862 9.17291C11.8847 9.17216 11.8832 9.17066 11.8817 9.16991C11.8795 9.16766 11.8765 9.16616 11.8735 9.16466C11.872 9.16391 11.8705 9.16241 11.869 9.16166C11.866 9.16016 11.8637 9.15866 11.8607 9.15716C11.8592 9.15641 11.8577 9.15566 11.8562 9.15491C11.8532 9.15341 11.8502 9.15191 11.8472 9.15116C11.8457 9.15116 11.8442 9.14966 11.842 9.14966C11.839 9.14891 11.836 9.14741 11.833 9.14666C11.8315 9.14666 11.8292 9.14591 11.8277 9.14516C11.8247 9.14516 11.8217 9.14366 11.8187 9.14291C11.8165 9.14291 11.8142 9.14291 11.812 9.14216C11.809 9.14216 11.8067 9.14141 11.8037 9.14141C11.8007 9.14141 11.7985 9.14141 11.7955 9.14141C11.794 9.14141 11.7917 9.14141 11.7902 9.14141H11.2262C11.1422 9.14141 11.0732 9.20966 11.0732 9.29441V12.7864C11.0732 12.8704 11.1415 12.9394 11.2262 12.9394H11.794C11.8787 12.9394 11.947 12.8712 11.947 12.7864V10.7127L13.5467 12.8734C13.558 12.8892 13.5715 12.9019 13.5865 12.9117C13.5865 12.9117 13.588 12.9124 13.588 12.9132C13.591 12.9154 13.594 12.9169 13.5977 12.9192C13.5992 12.9199 13.6007 12.9207 13.6022 12.9214C13.6045 12.9229 13.6075 12.9237 13.6097 12.9252C13.612 12.9267 13.615 12.9274 13.6172 12.9282C13.6187 12.9282 13.6202 12.9297 13.6217 12.9297C13.6255 12.9312 13.6285 12.9319 13.6322 12.9327C13.6322 12.9327 13.6337 12.9327 13.6345 12.9327C13.6472 12.9357 13.6607 12.9379 13.6742 12.9379H14.2382C14.3222 12.9379 14.3912 12.8697 14.3912 12.7849V9.29291C14.3912 9.20891 14.323 9.13991 14.2382 9.13991L14.2375 9.13916Z" fill="#06C755"/>
</g>
</g>
<defs>
<clipPath id="clip0_6182_26832">
<rect width="24" height="24" fill="white"/>
</clipPath>
<clipPath id="clip1_6182_26832">
<rect width="24" height="24" fill="white"/>
</clipPath>
</defs>
</svg>
